<mxfile host="app.diagrams.net" modified="2024-02-21T21:28:55.884Z" agent="Mozilla/5.0 (Windows NT 10.0; Win64; x64; rv:122.0) Gecko/20100101 Firefox/122.0" etag="t7JbqWTJmkwbHX71a4Jn" version="23.1.5" type="github">
  <diagram name="Page-1" id="q9JYpEjFwvB6e5CxQERE">
    <mxGraphModel dx="1434" dy="782" grid="1" gridSize="10" guides="1" tooltips="1" connect="1" arrows="1" fold="1" page="1" pageScale="1" pageWidth="827" pageHeight="1169" math="0" shadow="0">
      <root>
        <mxCell id="0" />
        <mxCell id="1" parent="0" />
        <mxCell id="uEq3m0R4o0ad3iEvtRFF-10" value="CyclingPortalTestApp" style="swimlane;fontStyle=1;align=center;verticalAlign=top;childLayout=stackLayout;horizontal=1;startSize=26;horizontalStack=0;resizeParent=1;resizeParentMax=0;resizeLast=0;collapsible=1;marginBottom=0;whiteSpace=wrap;html=1;" parent="1" vertex="1">
          <mxGeometry x="40" y="40" width="160" height="60" as="geometry" />
        </mxCell>
        <mxCell id="uEq3m0R4o0ad3iEvtRFF-12" value="" style="line;strokeWidth=1;fillColor=none;align=left;verticalAlign=middle;spacingTop=-1;spacingLeft=3;spacingRight=3;rotatable=0;labelPosition=right;points=[];portConstraint=eastwest;strokeColor=inherit;" parent="uEq3m0R4o0ad3iEvtRFF-10" vertex="1">
          <mxGeometry y="26" width="160" height="8" as="geometry" />
        </mxCell>
        <mxCell id="uEq3m0R4o0ad3iEvtRFF-13" value="+ main" style="text;strokeColor=none;fillColor=none;align=left;verticalAlign=top;spacingLeft=4;spacingRight=4;overflow=hidden;rotatable=0;points=[[0,0.5],[1,0.5]];portConstraint=eastwest;whiteSpace=wrap;html=1;" parent="uEq3m0R4o0ad3iEvtRFF-10" vertex="1">
          <mxGeometry y="34" width="160" height="26" as="geometry" />
        </mxCell>
        <mxCell id="wvcC62Qd1xTl-urH2v8x-5" value="" style="group" parent="1" vertex="1" connectable="0">
          <mxGeometry x="30" y="160" width="120" height="160" as="geometry" />
        </mxCell>
        <mxCell id="wvcC62Qd1xTl-urH2v8x-6" value="CyclingPortal" style="rounded=0;whiteSpace=wrap;html=1;" parent="wvcC62Qd1xTl-urH2v8x-5" vertex="1">
          <mxGeometry width="120" height="30" as="geometry" />
        </mxCell>
        <mxCell id="wvcC62Qd1xTl-urH2v8x-7" value="" style="rounded=0;whiteSpace=wrap;html=1;" parent="wvcC62Qd1xTl-urH2v8x-5" vertex="1">
          <mxGeometry y="30" width="120" height="70" as="geometry" />
        </mxCell>
        <mxCell id="wvcC62Qd1xTl-urH2v8x-8" value="" style="rounded=0;whiteSpace=wrap;html=1;" parent="wvcC62Qd1xTl-urH2v8x-5" vertex="1">
          <mxGeometry y="100" width="120" height="60" as="geometry" />
        </mxCell>
        <mxCell id="wvcC62Qd1xTl-urH2v8x-9" value="" style="group" parent="1" vertex="1" connectable="0">
          <mxGeometry x="200" y="120" width="140" height="200" as="geometry" />
        </mxCell>
        <mxCell id="wvcC62Qd1xTl-urH2v8x-10" value="Riders" style="rounded=0;whiteSpace=wrap;html=1;" parent="wvcC62Qd1xTl-urH2v8x-9" vertex="1">
          <mxGeometry width="140" height="37.5" as="geometry" />
        </mxCell>
        <mxCell id="wvcC62Qd1xTl-urH2v8x-11" value="&lt;div align=&quot;left&quot;&gt;-TotalPoints&lt;/div&gt;&lt;div&gt;-SprintersPoints&lt;/div&gt;&lt;div&gt;-MountainClassification&lt;br&gt;&lt;/div&gt;" style="rounded=0;whiteSpace=wrap;html=1;align=left;" parent="wvcC62Qd1xTl-urH2v8x-9" vertex="1">
          <mxGeometry y="37.5" width="140" height="112.5" as="geometry" />
        </mxCell>
        <mxCell id="wvcC62Qd1xTl-urH2v8x-12" value="" style="rounded=0;whiteSpace=wrap;html=1;" parent="wvcC62Qd1xTl-urH2v8x-9" vertex="1">
          <mxGeometry y="150" width="140" height="50" as="geometry" />
        </mxCell>
        <mxCell id="wvcC62Qd1xTl-urH2v8x-13" value="" style="group" parent="1" vertex="1" connectable="0">
          <mxGeometry x="354" y="160" width="120" height="160" as="geometry" />
        </mxCell>
        <mxCell id="wvcC62Qd1xTl-urH2v8x-14" value="Races" style="rounded=0;whiteSpace=wrap;html=1;" parent="wvcC62Qd1xTl-urH2v8x-13" vertex="1">
          <mxGeometry width="120" height="30" as="geometry" />
        </mxCell>
        <mxCell id="wvcC62Qd1xTl-urH2v8x-15" value="" style="rounded=0;whiteSpace=wrap;html=1;align=left;" parent="wvcC62Qd1xTl-urH2v8x-13" vertex="1">
          <mxGeometry y="30" width="120" height="70" as="geometry" />
        </mxCell>
        <mxCell id="wvcC62Qd1xTl-urH2v8x-16" value="" style="rounded=0;whiteSpace=wrap;html=1;" parent="wvcC62Qd1xTl-urH2v8x-13" vertex="1">
          <mxGeometry y="100" width="120" height="60" as="geometry" />
        </mxCell>
        <mxCell id="wvcC62Qd1xTl-urH2v8x-17" value="" style="group" parent="1" vertex="1" connectable="0">
          <mxGeometry x="180" y="400" width="120" height="160" as="geometry" />
        </mxCell>
        <mxCell id="wvcC62Qd1xTl-urH2v8x-18" value="StageRaces" style="rounded=0;whiteSpace=wrap;html=1;" parent="wvcC62Qd1xTl-urH2v8x-17" vertex="1">
          <mxGeometry width="120" height="30" as="geometry" />
        </mxCell>
        <mxCell id="wvcC62Qd1xTl-urH2v8x-19" value="&lt;div&gt;-StageType&lt;/div&gt;" style="rounded=0;whiteSpace=wrap;html=1;align=left;" parent="wvcC62Qd1xTl-urH2v8x-17" vertex="1">
          <mxGeometry y="30" width="120" height="70" as="geometry" />
        </mxCell>
        <mxCell id="wvcC62Qd1xTl-urH2v8x-20" value="" style="rounded=0;whiteSpace=wrap;html=1;" parent="wvcC62Qd1xTl-urH2v8x-17" vertex="1">
          <mxGeometry y="100" width="120" height="60" as="geometry" />
        </mxCell>
        <mxCell id="wvcC62Qd1xTl-urH2v8x-25" value="" style="group" parent="1" vertex="1" connectable="0">
          <mxGeometry x="500" y="400" width="120" height="160" as="geometry" />
        </mxCell>
        <mxCell id="wvcC62Qd1xTl-urH2v8x-26" value="MountainRaces" style="rounded=0;whiteSpace=wrap;html=1;" parent="wvcC62Qd1xTl-urH2v8x-25" vertex="1">
          <mxGeometry width="120" height="30" as="geometry" />
        </mxCell>
        <mxCell id="wvcC62Qd1xTl-urH2v8x-27" value="" style="rounded=0;whiteSpace=wrap;html=1;" parent="wvcC62Qd1xTl-urH2v8x-25" vertex="1">
          <mxGeometry y="30" width="120" height="70" as="geometry" />
        </mxCell>
        <mxCell id="wvcC62Qd1xTl-urH2v8x-28" value="" style="rounded=0;whiteSpace=wrap;html=1;" parent="wvcC62Qd1xTl-urH2v8x-25" vertex="1">
          <mxGeometry y="100" width="120" height="60" as="geometry" />
        </mxCell>
        <mxCell id="wvcC62Qd1xTl-urH2v8x-29" value="" style="endArrow=block;html=1;rounded=0;exitX=0.5;exitY=0;exitDx=0;exitDy=0;entryX=0.25;entryY=1;entryDx=0;entryDy=0;endFill=0;strokeWidth=2;endSize=10;startSize=10;edgeStyle=orthogonalEdgeStyle;" parent="1" source="wvcC62Qd1xTl-urH2v8x-18" target="wvcC62Qd1xTl-urH2v8x-16" edge="1">
          <mxGeometry width="50" height="50" relative="1" as="geometry">
            <mxPoint x="550" y="320" as="sourcePoint" />
            <mxPoint x="600" y="270" as="targetPoint" />
          </mxGeometry>
        </mxCell>
        <mxCell id="m1OBdF1gImB4O0k4xRKX-3" value="" style="endArrow=block;html=1;rounded=0;exitX=0.5;exitY=0;exitDx=0;exitDy=0;endFill=0;strokeWidth=2;endSize=10;startSize=10;edgeStyle=orthogonalEdgeStyle;entryX=0.842;entryY=1.033;entryDx=0;entryDy=0;entryPerimeter=0;" edge="1" parent="1" source="wvcC62Qd1xTl-urH2v8x-26" target="wvcC62Qd1xTl-urH2v8x-16">
          <mxGeometry width="50" height="50" relative="1" as="geometry">
            <mxPoint x="250" y="410" as="sourcePoint" />
            <mxPoint x="440" y="330" as="targetPoint" />
          </mxGeometry>
        </mxCell>
        <mxCell id="m1OBdF1gImB4O0k4xRKX-4" value="" style="group" vertex="1" connectable="0" parent="1">
          <mxGeometry x="340" y="400" width="120" height="160" as="geometry" />
        </mxCell>
        <mxCell id="m1OBdF1gImB4O0k4xRKX-5" value="TotalRace" style="rounded=0;whiteSpace=wrap;html=1;" vertex="1" parent="m1OBdF1gImB4O0k4xRKX-4">
          <mxGeometry width="120" height="30" as="geometry" />
        </mxCell>
        <mxCell id="m1OBdF1gImB4O0k4xRKX-6" value="" style="rounded=0;whiteSpace=wrap;html=1;" vertex="1" parent="m1OBdF1gImB4O0k4xRKX-4">
          <mxGeometry y="30" width="120" height="70" as="geometry" />
        </mxCell>
        <mxCell id="m1OBdF1gImB4O0k4xRKX-7" value="" style="rounded=0;whiteSpace=wrap;html=1;" vertex="1" parent="m1OBdF1gImB4O0k4xRKX-4">
          <mxGeometry y="100" width="120" height="60" as="geometry" />
        </mxCell>
        <mxCell id="m1OBdF1gImB4O0k4xRKX-8" value="" style="endArrow=block;html=1;rounded=0;endFill=0;strokeWidth=2;endSize=10;startSize=10;edgeStyle=orthogonalEdgeStyle;entryX=0.5;entryY=1;entryDx=0;entryDy=0;" edge="1" parent="1" target="wvcC62Qd1xTl-urH2v8x-16">
          <mxGeometry width="50" height="50" relative="1" as="geometry">
            <mxPoint x="400" y="400" as="sourcePoint" />
            <mxPoint x="465" y="332" as="targetPoint" />
          </mxGeometry>
        </mxCell>
      </root>
    </mxGraphModel>
  </diagram>
</mxfile>
